<svg version="1.2" xmlns="http://www.w3.org/2000/svg" viewBox="0 0 596 596" width="569" height="569">
	<title>macOS_Hello-svg</title>
	<style>
		.s0 { fill: none;stroke: #ffffff;stroke-linejoin: round;stroke-width: 19 }
		.hello-stroke {
  			stroke-dasharray: 5000;
			animation: draw 8s linear infinite;
		}

		@keyframes draw {
			0% {
				stroke-dashoffset: 0;
			}
			72% {
				stroke-dashoffset: -4000;
			}
			100% {
				stroke-dashoffset: 0;
			}
		}
	</style>
	<g id="Layer-2">
		<path id="Layer" fill-rule="evenodd" class="s0 hello-stroke" d="m14 355.7c0 0 58-37.3 78.7-69.8 20.7-32.5 33.7-73.7 6-75.6-27.7-1.9-44.3 167.8-44.3 167.8 0 0 13.8-83 46.8-84.1 33.1-1 23.2 29 22.3 33.1-0.9 4.1-21.4 61.3 32.7 50.7 54.1-10.5 90.8-67 63.7-84.4-27-17.4-64.5 46-24.7 79.4 39.8 33.3 107.6-40.1 116.8-55.4 9.2-15.3 42.6-86.2 21.6-104.2-21-18.1-45.8 45.4-46.8 74.2-0.9 28.7-11.8 112 55.5 86.4 67.2-25.6 113.7-164 69.2-163.3-44.5 0.8-57.2 174.2 0 169.3 57.3-4.8 40.7-73.9 76-87.2 35.2-13.3 77.8 46.6 15.2 86.6-62.6 39.9-57.7-123 20.6-83.6 78.2 39.5 56.9-6.9 56.9-6.9"/>
	</g>
</svg>