<svg version="1.2" xmlns="http://www.w3.org/2000/svg" viewBox="0 0 596 596" width="596" height="596">
	<title>macOS_Hello-svg</title>
	<style>
		.s0 { fill: none;stroke: #ff0600;stroke-linejoin: round;stroke-width: 14 } 
	</style>
	<g id="Layer-2">
		<path id="Layer" class="s0" d="m74.8 342.9c0 0 45.8-29.4 62.1-55 16.4-25.7 26.7-58.2 4.8-59.7-21.9-1.5-35 132.5-35 132.5 0 0 10.9-65.6 37-66.4 26.1-0.8 18.3 22.8 17.6 26.1-0.7 3.3-16.9 48.4 25.8 40 42.7-8.3 71.7-52.9 50.3-66.6-21.4-13.8-50.9 36.3-19.5 62.6 31.4 26.4 84.9-31.6 92.2-43.7 7.2-12 33.6-68 17-82.2-16.5-14.3-36.2 35.8-36.9 58.5-0.7 22.7-9.3 88.5 43.8 68.2 53.1-20.2 89.8-129.4 54.6-128.8-35.1 0.6-45.1 137.5 0 133.6 45.2-3.8 32.2-58.3 60-68.8 27.8-10.5 61.4 36.8 12 68.3-49.4 31.5-45.6-97.1 16.2-65.9 61.8 31.1 45-5.5 45-5.5"/>
	</g>
</svg>