<?xml version="1.0" encoding="UTF-8" standalone="no"?>
<!DOCTYPE svg PUBLIC "-//W3C//DTD SVG 1.1//EN" "http://www.w3.org/Graphics/SVG/1.1/DTD/svg11.dtd">
<svg height="100%" stroke-miterlimit="10" style="fill-rule:nonzero;clip-rule:evenodd;stroke-linecap:round;stroke-linejoin:round;" version="1.1" viewBox="0 0 595.35 419.58" width="100%" xml:space="preserve" xmlns="http://www.w3.org/2000/svg" xmlns:xlink="http://www.w3.org/1999/xlink">
<defs/>
<g id="Layer-2">
<path d="M74.8431 254.94C74.8431 254.94 120.607 225.501 136.943 199.869C153.28 174.237 163.568 141.732 141.688 140.224C119.808 138.716 106.701 272.684 106.701 272.684C106.701 272.684 117.6 207.148 143.683 206.304C169.765 205.46 161.988 229.138 161.293 232.403C160.597 235.669 144.383 280.776 187.087 272.437C229.792 264.098 258.751 219.538 237.399 205.781C216.047 192.024 186.483 242.118 217.881 268.44C249.279 294.763 302.813 236.803 310.056 224.741C317.299 212.679 343.666 156.685 327.114 142.456C310.562 128.227 290.94 178.315 290.202 201.022C289.464 223.729 280.868 289.471 333.971 269.246C387.073 249.02 423.779 139.785 388.625 140.392C353.47 140.998 343.455 277.851 388.632 274.029C433.808 270.207 420.758 215.683 448.567 205.18C476.376 194.676 510.042 241.984 460.617 273.487C411.192 304.99 415.045 176.407 476.834 207.565C538.622 238.723 521.773 202.089 521.773 202.089" fill="none" opacity="1" stroke="#ffffff" stroke-linecap="butt" stroke-linejoin="round" stroke-width="14"/>
</g>
</svg>
